<svg width="68" height="69" viewBox="0 0 68 69" fill="none" xmlns="http://www.w3.org/2000/svg">
<path fill-rule="evenodd" clip-rule="evenodd" d="M30.1113 8.98514C30.1056 8.9851 30.0999 8.9851 30.0943 8.98514C30.0585 8.99041 30.023 8.99753 29.988 9.00641C29.8988 9.02009 29.8117 9.04503 29.7288 9.08073L5.15951 19.5889C4.9957 19.6162 4.84059 19.6816 4.70663 19.7798C4.57267 19.878 4.46358 20.0062 4.38813 20.1541C4.38522 20.1612 4.38239 20.1683 4.37963 20.1754C4.25924 20.3958 4.22084 20.6517 4.27125 20.8978V52.5308C4.27144 52.5741 4.27428 52.6172 4.27976 52.6602C4.27969 52.6673 4.27969 52.6744 4.27976 52.6815C4.28331 52.7036 4.28757 52.7256 4.29251 52.7474C4.3231 52.9242 4.398 53.0905 4.51022 53.2306C4.62244 53.3707 4.76832 53.4799 4.93425 53.5484L29.7288 64.1524C29.8472 64.2032 29.974 64.2318 30.1028 64.2372C30.1183 64.2376 30.1339 64.2376 30.1495 64.2372C30.1509 64.2372 30.1523 64.2372 30.1538 64.2372C30.1644 64.2374 30.175 64.2374 30.1856 64.2372C30.1998 64.2375 30.214 64.2375 30.2281 64.2372C30.2501 64.2379 30.2721 64.2379 30.294 64.2372C30.4022 64.2272 30.5083 64.2008 30.6085 64.1586L44.0938 58.3893C45.1171 60.1678 46.5906 61.6457 48.3662 62.6741C50.1418 63.7025 52.1568 64.2452 54.2088 64.2478C60.6518 64.2478 65.8963 59.0033 65.8963 52.5603C65.8963 46.7527 61.6293 41.9353 56.0681 41.0407V20.9722C56.11 20.8161 56.1157 20.6524 56.0848 20.4937C56.0539 20.3349 55.9871 20.1853 55.8896 20.0563C55.8078 19.9335 55.7013 19.8291 55.5769 19.7497C55.4525 19.6703 55.313 19.6178 55.1671 19.5954L30.6085 9.08929C30.5204 9.0507 30.4275 9.02428 30.3323 9.01069C30.3223 9.01055 30.3124 9.01055 30.3025 9.01069C30.2763 9.00972 30.2501 9.00972 30.2239 9.01069C30.1864 9.0087 30.1488 9.0087 30.1113 9.01069V8.98514ZM30.1686 11.2016L35.3791 13.4264L13.3004 22.8677C13.2802 22.877 13.2604 22.887 13.2409 22.8975L8.02613 20.6685L30.1686 11.2016ZM38.0843 14.5845L44.4019 17.2854L21.9109 26.9032C21.6958 26.9944 21.5168 27.1539 21.4016 27.3571C21.2863 27.5603 21.2413 27.796 21.2734 28.0274C21.2716 28.055 21.2709 28.0825 21.2713 28.1101V39.4747L18.9678 36.0195C18.8241 35.8038 18.6066 35.6479 18.3561 35.5814C18.1057 35.5148 17.8395 35.5421 17.6078 35.6581L14.8963 37.0117V24.4998L38.0843 14.5845ZM47.0985 18.4392L52.3111 20.6685L30.1686 30.1394L24.9624 27.9104L47.0369 18.469C47.0585 18.4598 47.0797 18.4498 47.1006 18.4392H47.0985ZM6.39625 22.2856L12.7713 25.0098V38.7351C12.7714 38.916 12.8178 39.0939 12.906 39.2519C12.9941 39.4098 13.1212 39.5427 13.275 39.6379C13.4289 39.733 13.6045 39.7873 13.7852 39.7956C13.9659 39.8038 14.1457 39.7657 14.3076 39.6851L17.7183 37.9787L21.3903 43.4866C21.4887 43.6776 21.6427 43.8344 21.832 43.9361C22.0213 44.0378 22.237 44.0796 22.4506 44.0562C22.4878 44.0511 22.5247 44.044 22.5611 44.0349C22.5725 44.0351 22.5838 44.0351 22.5951 44.0349C22.6187 44.0287 22.6421 44.0215 22.6653 44.0137C22.7659 43.9812 22.8612 43.9339 22.9479 43.8733C23.1076 43.7621 23.2336 43.6093 23.3123 43.4313C23.391 43.2533 23.4193 43.057 23.3941 42.864V29.5573L29.1061 31.9988V61.5703L6.39625 51.8548V22.2918V22.2856ZM53.9431 22.2856V40.8729C51.35 40.936 48.8514 41.8591 46.8401 43.4969C44.8287 45.1348 43.4187 47.3947 42.8315 49.9212L40.2135 51.0369L34.017 53.6887C33.7578 53.7992 33.553 54.0081 33.4478 54.2695C33.3426 54.531 33.3455 54.8235 33.456 55.0827C33.5665 55.342 33.7754 55.5467 34.0368 55.6519C34.2982 55.7571 34.5908 55.7543 34.85 55.6438L41.0465 52.9917L42.5298 52.3606C42.5298 52.4222 42.5213 52.4839 42.5213 52.5476C42.5213 53.9161 42.772 55.2251 43.2055 56.4449L31.2311 61.5662V31.9946L53.9431 22.2856ZM54.2088 42.9831C59.5021 42.9831 63.7713 47.2543 63.7713 52.5456C63.7713 57.8411 59.5021 62.1081 54.2088 62.1081C52.9524 62.1103 51.7079 61.8644 50.5467 61.3846C49.3855 60.9048 48.3305 60.2007 47.4421 59.3123C46.5536 58.4239 45.8494 57.3687 45.3696 56.2075C44.8898 55.0463 44.644 53.802 44.6463 52.5456C44.6463 47.2543 48.9154 42.9831 54.2088 42.9831ZM40.596 46.708C40.4639 46.7144 40.3342 46.7456 40.2135 46.7996L34.017 49.4514C33.8806 49.5002 33.7555 49.5764 33.6496 49.6753C33.5437 49.7742 33.4592 49.8937 33.4011 50.0265C33.3431 50.1593 33.3129 50.3026 33.3123 50.4475C33.3117 50.5924 33.3407 50.7361 33.3976 50.8693C33.4545 51.0026 33.5381 51.1226 33.6432 51.2224C33.7483 51.3221 33.8727 51.3994 34.0087 51.4493C34.1447 51.4993 34.2895 51.521 34.4342 51.5129C34.5789 51.5048 34.7204 51.4672 34.85 51.4024L41.0465 48.7544C41.2794 48.6604 41.4714 48.4869 41.5885 48.2647C41.7056 48.0425 41.7402 47.7862 41.6862 47.541C41.6323 47.2957 41.4931 47.0773 41.2935 46.9249C41.094 46.7725 40.8468 46.6956 40.596 46.708ZM60.5285 47.8024C60.2879 47.8017 60.0541 47.8827 59.8655 48.032L51.6226 54.3219L48.8453 50.922C48.6672 50.7036 48.4096 50.565 48.1293 50.5365C47.8489 50.508 47.5687 50.5919 47.3503 50.77C47.1319 50.9481 46.9932 51.2058 46.9647 51.4862C46.9362 51.7665 47.0203 52.0468 47.1984 52.2652L51.2784 57.2589L61.1554 49.7215C61.3357 49.589 61.4696 49.403 61.5381 49.19C61.6065 48.977 61.6059 48.7477 61.5364 48.535C61.467 48.3223 61.3321 48.1371 61.1511 48.0056C60.9701 47.874 60.7522 47.8029 60.5285 47.8024Z" fill="#ED1556"/>
</svg>
